# xmcd
# Track frame offsets:
# 183
# 11043
# 27025
# 40855
# 51075
# 66473
# 78198
# 92493
# 106925
# 118000
#
# Disc length: 1785 seconds
# Revision: 0
# Processed by: cddbd v1.5PL3 Copyright (c) Steve Scherf et al.
# Submitted via: VisiTrax 2.9.9.202 - For more info visit www.synapsa.com
#
DISCID=7506f70a
DTITLE=Dermot O'Brien - Ould Claddagh Ring
DYEAR=1900
DGENRE=Vocal
TTITLE0=Dermot - Oul Claddagh Ring
TTITLE1=Dermot - Connemara Rose
TTITLE2=Dermot - Road to Malinmore
TTITLE3=Dermot - Where the three counties meet
TTITLE4=Dermot - Nora
TTITLE5=Dermot - The Holy Ground
TTITLE6=Dermot - Song of an Irish husband
TTITLE7=Dermot - Boys of Killybegs
TTITLE8=Dermot - Home boys Home
TTITLE9=Dermot - Come to the Bower
EXTD=
EXTT0=
EXTT1=
EXTT2=
EXTT3=
EXTT4=
EXTT5=
EXTT6=
EXTT7=
EXTT8=
EXTT9=
PLAYORDER=
